<?xml version="1.0" encoding="utf-8"?>
<!-- Generator: Adobe Illustrator 18.0.0, SVG Export Plug-In . SVG Version: 6.00 Build 0)  -->
<!DOCTYPE svg PUBLIC "-//W3C//DTD SVG 1.1//EN" "http://www.w3.org/Graphics/SVG/1.1/DTD/svg11.dtd">
<svg version="1.1" id="Layer_1" xmlns="http://www.w3.org/2000/svg" xmlns:xlink="http://www.w3.org/1999/xlink" x="0px" y="0px"
	 viewBox="0 0 612 792" enable-background="new 0 0 612 792" xml:space="preserve">
<path fill="#F16990" d="M147,484.3h-18.9c-6.6,0-12-5.4-12-12v-16c0-6.6,5.4-12,12-12H147c6.6,0,12,5.4,12,12v16
	C159,478.9,153.6,484.3,147,484.3z"/>
<rect x="146.7" y="444.3" fill="#FFC852" width="235.7" height="40"/>
<path fill="none" stroke="#8A4E36" stroke-width="10" stroke-linecap="round" stroke-miterlimit="10" d="M274.1,216.3
	c0,0,19.4-60.4-10.5-67.5s-29.9-7.1-29.9-7.1"/>
<ellipse fill="#C8993C" cx="276.9" cy="458.5" rx="104.9" ry="13.2"/>
<path fill="#E33D3E" d="M337.4,290.2c8.8,60.8-27.4,158.9-88.2,167.7s-123.2-75.1-132-135.9s33.4-117.2,94.2-126
	C272.3,187.2,328.7,229.4,337.4,290.2z"/>
<path fill="#82C56B" d="M354.3,149.9c-26.8,26.8-69.1,28.1-69.1,28.1s1.2-42.3,28.1-69.1s69.1-28.1,69.1-28.1
	S381.2,123.1,354.3,149.9z"/>
<line fill="none" stroke="#649B4F" stroke-width="4" stroke-linecap="round" stroke-miterlimit="10" x1="295.7" y1="167" x2="368.3" y2="94.3"/>
<path fill="#F04A4A" d="M214,290.2c-8.8,60.8,27.4,158.9,88.2,167.7s123.2-75.1,132-135.9s-33.4-117.2-94.2-126
	C279.1,187.2,222.7,229.4,214,290.2z"/>
<ellipse transform="matrix(0.9955 -9.447243e-002 9.447243e-002 0.9955 -24.1643 37.1626)" fill="#F38081" cx="380.4" cy="273.8" rx="16.9" ry="25.3"/>
<rect x="146" y="444.3" fill="#AFB9D1" width="26" height="40"/>
<polygon fill="#F9EAC8" points="381.8,445.2 436.3,464.7 381.8,484.2 "/>
<polygon fill="#595B6B" points="409,455 436.3,464.8 409,474.6 "/>
</svg>
